<?xml version="1.0" encoding="UTF-8"?>
<svg viewBox="0 0 1536 285" version="1.1" xmlns="http://www.w3.org/2000/svg" xmlns:xlink="http://www.w3.org/1999/xlink">
    <title>Elysian Logo</title>
    <g id="logo" stroke="none" fill="#606161" fill-rule="evenodd">
        <circle id="dot" cx="822.3" cy="57.3" r="19.3"></circle>
        <path d="M1532.2,116.3 C1514.4,123.1 1482.2,134.9 1463.1,143 C1443.8,151.2 1427.5,155 1406.6,156.8 C1376.3,159.4 1347.9,129.4 1338.9,123.8 C1325.8,115.5 1312,110 1296.8,120.2 C1291.4,123.8 1274,147.7 1267.7,150.7 C1264.5,154.1 1251,130.2 1241.8,116.5 C1236.8,109.1 1231.9,106.7 1226.9,107.9 C1221.2,109.3 1215.4,112.6 1209.9,115 C1205.7,116.8 1170.4,137 1159.5,142.9 C1137.7,154.5 1120,157.6 1103.6,139.5 C1097.2,132.4 1091,125.2 1084.5,118.2 C1077.2,110.3 1068.4,106.6 1057.4,107.9 C1037.1,110.3 1018.3,117.1 999.6,124.8 C971.1,136.5 947.9,144.7 908.8,156.5 C890.5,162 873.6,156 863.9,145.7 C857.3,138.6 848.9,122.3 842.3,114.9 C833.1,104.6 816.8,108.4 806.9,113 C801.3,115.6 778.3,130.5 739.4,141.6 C732.6,143.5 703.7,153.9 690.1,157.2 C687.9,150.8 684.3,142.8 680.4,137.1 C676.5,131.4 665.8,117.8 657.7,110.5 C648.2,102 640.6,104.2 632.6,114.4 C616.3,134.9 552.3,194 542.6,203.2 C540.2,197.5 536,189.5 532.4,183.5 C522.2,166.5 505.6,149.4 500,132.2 C499,129.1 498.8,118.7 498,116.2 C495.2,107.3 489.7,105.2 482.9,111.6 C480.5,113.8 470.7,122.5 470,127.1 C469.8,128.1 469.8,129 469.9,129.8 C468.8,132.3 472.1,132.4 465.7,138.4 C457,146.6 454.1,150.4 444.7,152.2 C443.1,152.5 441.6,152.3 440,151.9 C437.4,151.2 434.2,149.4 431.5,145.9 C427.3,140.2 420.8,129.4 416,122 C414.8,119.8 413.8,118.1 413.1,117.1 C411.5,114.9 409.9,112.8 408.3,111.3 C404.5,107.5 400.8,106.3 397,107.2 C391.3,108.6 385.5,111.9 380,114.3 C375.8,116.1 337.3,138.5 326.4,144.3 C325.6,144.7 324.7,145.2 323.8,145.6 C323.8,145.6 323.8,145.5 323.7,145.5 C319.6,147.3 315.8,149 312.2,150.5 C303.1,153.7 293,156 283.6,156.5 C255.8,156 230.7,126.7 222.6,108.4 C223.3,107.8 228.9,102.7 229.3,102.4 C262.2,72.1 265.5,42.6 259.1,24.3 C254.7,11.8 244,5.3 241.6,4.1 C230.4,-1.7 182,-10.2 180,59.1 C179.7,68.7 180.7,88.3 192.5,114.1 C187.9,117.1 179.6,122 168,127.8 C146.5,138.6 93.3,164.2 55.2,153.8 C46.8,151.5 39.4,145.1 39.4,145.1 C39.4,145.1 63,126.4 62.6,108.3 C62.4,96.5 48.3,87.8 34.7,90 C21.5,92.2 -7.1,120.5 9,148.6 C9,148.6 -1.6,158.2 0.6,160.6 C4.2,162.4 9.7,162.6 14.4,160.3 C19.2,157.9 17.4,159 17.4,159 C25.6,166.9 45.4,176.6 81.4,171.8 C91,170.5 113.1,165.1 132.5,157.3 C147.9,151.7 178.6,135.6 197,123 C198.6,125.9 200.4,128.7 202.3,131.6 C218,154.6 248.7,175.2 283,170.2 C285.9,170 289.1,169.4 292.7,168.4 C307.4,164.9 321.6,157.9 333.3,151.5 C348,144.1 362.2,135.9 372.2,129.9 C372.6,129.7 382.7,124.1 382.7,124.1 C382.7,124.1 384.7,127.6 387.2,130.6 C392.2,137.5 398.6,146.6 409,159.7 C415.5,168 423.3,171.8 430.9,170.7 C431.2,170.7 431.5,170.6 431.7,170.5 C432.1,170.4 432.5,170.4 432.8,170.3 C434.3,169.9 435.9,169.3 437.7,168.5 C447.9,163.8 460.9,154 474.2,141.1 C476.3,144.4 480.3,150.6 482.9,155.9 C486.8,163.8 513.3,200.5 521.6,222.4 C512.6,233.4 504.5,239.7 495,253.6 C491.1,259.2 492.1,269.6 495.7,275.9 C503.1,288.9 529.1,286 540.3,272.2 C546.5,264.5 550.9,245.3 548.9,230.2 C547.8,222 546,215.3 545.4,212.7 C545.5,211.2 557.7,200.6 565.1,193.6 C572.4,186.7 622.2,147.5 637.8,126.1 C644.9,134.6 653.5,149.4 657.6,160.8 C658.2,162.4 659,164 655.1,166.7 C651.2,169.5 658.2,177.3 665.6,175.9 C678.6,174.5 725.5,158.9 738.8,153.7 C768.1,142.3 801.5,125.5 813.2,121.8 C816,124.2 821.7,134.5 823.5,137 C825.3,139.5 835.7,154.8 844.4,162.2 C862,177.3 902.9,169.1 920.1,163.2 C947.1,153.9 958.8,149.6 985.4,139.1 C988.2,138 991.3,137.5 994.3,136.7 C998.3,147.6 985.5,159.7 994.6,167.5 C1011.2,182 1039.5,148.9 1061.9,135.6 C1069.8,143.2 1078.4,152.4 1084.9,157.9 C1093.5,165.2 1101.8,170.1 1113.2,170.1 C1133.9,170.1 1177.1,142.3 1200.6,128.2 C1201,128 1211.1,123.4 1211.1,123.4 C1211.1,123.4 1214.7,128.8 1217.2,131.8 C1222.2,138.7 1227.4,145.6 1237.8,158.8 C1248,171.8 1261.4,173.9 1272.1,163 C1285.3,149.5 1301.7,127.1 1317.9,137.2 C1320.7,139 1337.6,155.9 1353.3,164.2 C1375.1,175.7 1413,170.8 1435.5,160.2 C1457.8,149.7 1509.7,130.9 1531.5,119.5 C1536.8,116 1536,114.4 1532.2,116.3 Z M35.4,94.6 C39.6,93.1 49.4,95.5 48.5,101.4 C47.4,108.3 28.3,129.8 28.4,129.7 C18.1,111.7 28.1,97.3 35.4,94.6 Z M210.7,41.3 C210.7,41.3 214,22.5 228,15.9 C234.1,13 240.2,21.1 242.2,32.8 C244.1,44 240.5,61.4 233.7,73.1 C228.6,81.8 220.4,90.9 216.5,94.2 C208.4,73.2 207.9,54.3 210.7,41.3 Z M522.7,272.7 C514.2,283.6 494.8,273.1 500.3,259.1 C502.4,252.1 511.2,245 525.8,230.4 C530.8,244.9 530.1,260.9 522.7,272.7 Z M1019.3,153.2 C1014.6,128.6 1025.4,120 1055.5,123.1 C1048,138.7 1033.9,144.7 1019.3,153.2 Z" id="elysian" fill-rule="nonzero"></path>
    </g>
</svg>
