<svg viewBox="0 0 1536 285" xmlns="http://www.w3.org/2000/svg"><g fill="#606161" fill-rule="evenodd"><circle cx="822.3" cy="57.3" r="19.3"/><path d="M1532.2 116.3c-17.8 6.8-50 18.6-69.1 26.7-19.3 8.2-35.6 12-56.5 13.8-30.3 2.6-58.7-27.4-67.7-33-13.1-8.3-26.9-13.8-42.1-3.6-5.4 3.6-22.8 27.5-29.1 30.5-3.2 3.4-16.7-20.5-25.9-34.2-5-7.4-9.9-9.8-14.9-8.6-5.7 1.4-11.5 4.7-17 7.1-4.2 1.8-39.5 22-50.4 27.9-21.8 11.6-39.5 14.7-55.9-3.4-6.4-7.1-12.6-14.3-19.1-21.3-7.3-7.9-16.1-11.6-27.1-10.3-20.3 2.4-39.1 9.2-57.8 16.9-28.5 11.7-51.7 19.9-90.8 31.7-18.3 5.5-35.2-.5-44.9-10.8-6.6-7.1-15-23.4-21.6-30.8-9.2-10.3-25.5-6.5-35.4-1.9-5.6 2.6-28.6 17.5-67.5 28.6-6.8 1.9-35.7 12.3-49.3 15.6-2.2-6.4-5.8-14.4-9.7-20.1-3.9-5.7-14.6-19.3-22.7-26.6-9.5-8.5-17.1-6.3-25.1 3.9-16.3 20.5-80.3 79.6-90 88.8-2.4-5.7-6.6-13.7-10.2-19.7-10.2-17-26.8-34.1-32.4-51.3-1-3.1-1.2-13.5-2-16-2.8-8.9-8.3-11-15.1-4.6-2.4 2.2-12.2 10.9-12.9 15.5-.2 1-.2 1.9-.1 2.7-1.1 2.5 2.2 2.6-4.2 8.6-8.7 8.2-11.6 12-21 13.8-1.6.3-3.1.1-4.7-.3-2.6-.7-5.8-2.5-8.5-6-4.2-5.7-10.7-16.5-15.5-23.9-1.2-2.2-2.2-3.9-2.9-4.9-1.6-2.2-3.2-4.3-4.8-5.8-3.8-3.8-7.5-5-11.3-4.1-5.7 1.4-11.5 4.7-17 7.1-4.2 1.8-42.7 24.2-53.6 30-.8.4-1.7.9-2.6 1.3 0 0 0-.1-.1-.1-4.1 1.8-7.9 3.5-11.5 5-9.1 3.2-19.2 5.5-28.6 6-27.8-.5-52.9-29.8-61-48.1.7-.6 6.3-5.7 6.7-6 32.9-30.3 36.2-59.8 29.8-78.1-4.4-12.5-15.1-19-17.5-20.2-11.2-5.8-59.6-14.3-61.6 55-.3 9.6.7 29.2 12.5 55-4.6 3-12.9 7.9-24.5 13.7-21.5 10.8-74.7 36.4-112.8 26-8.4-2.3-15.8-8.7-15.8-8.7s23.6-18.7 23.2-36.8C62.4 96.5 48.3 87.8 34.7 90 21.5 92.2-7.1 120.5 9 148.6c0 0-10.6 9.6-8.4 12 3.6 1.8 9.1 2 13.8-.3 4.8-2.4 3-1.3 3-1.3 8.2 7.9 28 17.6 64 12.8 9.6-1.3 31.7-6.7 51.1-14.5 15.4-5.6 46.1-21.7 64.5-34.3 1.6 2.9 3.4 5.7 5.3 8.6 15.7 23 46.4 43.6 80.7 38.6 2.9-.2 6.1-.8 9.7-1.8 14.7-3.5 28.9-10.5 40.6-16.9 14.7-7.4 28.9-15.6 38.9-21.6.4-.2 10.5-5.8 10.5-5.8s2 3.5 4.5 6.5c5 6.9 11.4 16 21.8 29.1 6.5 8.3 14.3 12.1 21.9 11 .3 0 .6-.1.8-.2.4-.1.8-.1 1.1-.2 1.5-.4 3.1-1 4.9-1.8 10.2-4.7 23.2-14.5 36.5-27.4 2.1 3.3 6.1 9.5 8.7 14.8 3.9 7.9 30.4 44.6 38.7 66.5-9 11-17.1 17.3-26.6 31.2-3.9 5.6-2.9 16 .7 22.3 7.4 13 33.4 10.1 44.6-3.7 6.2-7.7 10.6-26.9 8.6-42-1.1-8.2-2.9-14.9-3.5-17.5.1-1.5 12.3-12.1 19.7-19.1 7.3-6.9 57.1-46.1 72.7-67.5 7.1 8.5 15.7 23.3 19.8 34.7.6 1.6 1.4 3.2-2.5 5.9-3.9 2.8 3.1 10.6 10.5 9.2 13-1.4 59.9-17 73.2-22.2 29.3-11.4 62.7-28.2 74.4-31.9 2.8 2.4 8.5 12.7 10.3 15.2 1.8 2.5 12.2 17.8 20.9 25.2 17.6 15.1 58.5 6.9 75.7 1 27-9.3 38.7-13.6 65.3-24.1 2.8-1.1 5.9-1.6 8.9-2.4 4 10.9-8.8 23 .3 30.8 16.6 14.5 44.9-18.6 67.3-31.9 7.9 7.6 16.5 16.8 23 22.3 8.6 7.3 16.9 12.2 28.3 12.2 20.7 0 63.9-27.8 87.4-41.9.4-.2 10.5-4.8 10.5-4.8s3.6 5.4 6.1 8.4c5 6.9 10.2 13.8 20.6 27 10.2 13 23.6 15.1 34.3 4.2 13.2-13.5 29.6-35.9 45.8-25.8 2.8 1.8 19.7 18.7 35.4 27 21.8 11.5 59.7 6.6 82.2-4 22.3-10.5 74.2-29.3 96-40.7 5.3-3.5 4.5-5.1.7-3.2zM35.4 94.6c4.2-1.5 14 .9 13.1 6.8-1.1 6.9-20.2 28.4-20.1 28.3-10.3-18-.3-32.4 7-35.1zm175.3-53.3S214 22.5 228 15.9c6.1-2.9 12.2 5.2 14.2 16.9 1.9 11.2-1.7 28.6-8.5 40.3-5.1 8.7-13.3 17.8-17.2 21.1-8.1-21-8.6-39.9-5.8-52.9zm312 231.4c-8.5 10.9-27.9.4-22.4-13.6 2.1-7 10.9-14.1 25.5-28.7 5 14.5 4.3 30.5-3.1 42.3zm496.6-119.5c-4.7-24.6 6.1-33.2 36.2-30.1-7.5 15.6-21.6 21.6-36.2 30.1z" fill-rule="nonzero"/></g></svg>